<svg id="Capa_1" enable-background="new 0 0 512 512" height="512" viewBox="0 0 512 512" width="512" xmlns="http://www.w3.org/2000/svg"><g><g><path d="m454.259 185.419c3.42 2.337 8.086 1.461 10.424-1.959 3.307-4.838 8.773-7.726 14.622-7.726 9.757 0 17.695 7.938 17.695 17.695s-7.938 17.694-17.695 17.694h-85.923c-4.142 0-7.5 3.357-7.5 7.5s3.358 7.5 7.5 7.5h85.923c18.028 0 32.695-14.667 32.695-32.694 0-18.028-14.667-32.695-32.695-32.695-10.805 0-20.9 5.331-27.004 14.261-2.338 3.419-1.461 8.086 1.958 10.424z"/><path d="m435.228 186.299c0-4.143-3.358-7.5-7.5-7.5h-48.488c-4.142 0-7.5 3.357-7.5 7.5s3.358 7.5 7.5 7.5h48.488c4.142 0 7.5-3.358 7.5-7.5z"/><path d="m405.504 248.5c-4.142 0-7.5 3.357-7.5 7.5s3.358 7.5 7.5 7.5h72.732c4.142 0 7.5-3.357 7.5-7.5s-3.358-7.5-7.5-7.5z"/><path d="m479.305 285.876h-85.923c-4.142 0-7.5 3.357-7.5 7.5s3.358 7.5 7.5 7.5h85.923c9.757 0 17.695 7.938 17.695 17.694s-7.938 17.695-17.695 17.695c-5.848 0-11.314-2.888-14.622-7.726-2.338-3.419-7.005-4.296-10.424-1.959-3.419 2.338-4.296 7.005-1.958 10.424 6.104 8.93 16.2 14.261 27.004 14.261 18.028 0 32.695-14.667 32.695-32.695 0-18.027-14.667-32.694-32.695-32.694z"/><path d="m416.675 359.618h-102.926c11.949-6.661 22.787-15.413 31.951-25.999 2.711-3.132 2.37-7.868-.762-10.58-3.132-2.711-7.869-2.369-10.579.762-19.706 22.763-48.266 35.819-78.359 35.819-57.136 0-103.62-46.483-103.62-103.62s46.484-103.62 103.62-103.62 103.62 46.483 103.62 103.62c0 13.929-2.716 27.44-8.072 40.159-1.607 3.817.184 8.216 4.001 9.823 3.82 1.608 8.215-.185 9.823-4.001 6.137-14.571 9.248-30.042 9.248-45.981 0-44.483-24.617-83.318-60.939-103.618h102.994c18.028 0 32.695-14.667 32.695-32.694s-14.667-32.694-32.695-32.694c-10.805 0-20.9 5.33-27.005 14.259-2.338 3.42-1.461 8.087 1.958 10.425 3.418 2.336 8.087 1.46 10.424-1.958 3.307-4.838 8.773-7.726 14.622-7.726 9.757 0 17.695 7.938 17.695 17.694s-7.938 17.694-17.695 17.694c0 0-160.624-.002-160.675-.002-65.407 0-118.62 53.213-118.62 118.62s53.214 118.62 118.621 118.62c.048 0 160.675-.002 160.675-.002 9.757 0 17.695 7.938 17.695 17.694s-7.938 17.694-17.695 17.694c-5.849 0-11.315-2.888-14.622-7.726-2.339-3.418-7.004-4.295-10.424-1.958-3.419 2.338-4.296 7.005-1.958 10.425 6.105 8.929 16.2 14.259 27.005 14.259 18.028 0 32.695-14.667 32.695-32.694s-14.668-32.694-32.696-32.694z"/><path d="m372.75 325.701c0 4.143 3.358 7.5 7.5 7.5h47.478c4.142 0 7.5-3.357 7.5-7.5s-3.358-7.5-7.5-7.5h-47.478c-4.142 0-7.5 3.358-7.5 7.5z"/><path d="m7.5 226.124h109.098c4.142 0 7.5-3.357 7.5-7.5s-3.358-7.5-7.5-7.5h-109.098c-4.142 0-7.5 3.357-7.5 7.5s3.358 7.5 7.5 7.5z"/><path d="m70.13 193.799h46.468c15.275 0 27.703-12.428 27.703-27.703s-12.428-27.703-27.703-27.703c-9.156 0-17.71 4.517-22.881 12.082-2.338 3.42-1.46 8.087 1.959 10.424 3.42 2.337 8.087 1.461 10.424-1.959 2.375-3.474 6.299-5.547 10.499-5.547 7.004 0 12.703 5.698 12.703 12.703s-5.699 12.703-12.703 12.703h-46.469c-4.142 0-7.5 3.357-7.5 7.5s3.358 7.5 7.5 7.5z"/><path d="m116.598 318.201h-46.468c-4.142 0-7.5 3.357-7.5 7.5s3.358 7.5 7.5 7.5h46.468c7.004 0 12.703 5.698 12.703 12.703s-5.699 12.703-12.703 12.703c-4.199 0-8.124-2.073-10.499-5.547-2.337-3.419-7.004-4.296-10.424-1.959-3.419 2.337-4.297 7.004-1.959 10.424 5.171 7.565 13.725 12.082 22.881 12.082 15.275 0 27.703-12.428 27.703-27.703s-12.427-27.703-27.702-27.703z"/><path d="m110.537 248.5h-81.764c-4.142 0-7.5 3.357-7.5 7.5s3.358 7.5 7.5 7.5h81.764c4.142 0 7.5-3.357 7.5-7.5s-3.358-7.5-7.5-7.5z"/><path d="m124.098 293.376c0-4.143-3.358-7.5-7.5-7.5h-109.098c-4.142 0-7.5 3.357-7.5 7.5s3.358 7.5 7.5 7.5h109.098c4.142 0 7.5-3.357 7.5-7.5z"/><path d="m182.236 227.254c-3.985-1.126-8.132 1.184-9.262 5.169-2.167 7.638-3.265 15.57-3.265 23.577 0 47.58 38.709 86.29 86.29 86.29s86.29-38.71 86.29-86.29-38.709-86.29-86.29-86.29c-24.722 0-48.293 10.63-64.67 29.164-2.743 3.104-2.45 7.844.654 10.586 3.104 2.743 7.844 2.449 10.586-.654 13.531-15.313 33.006-24.096 53.43-24.096 39.31 0 71.29 31.98 71.29 71.29s-31.98 71.29-71.29 71.29-71.29-31.98-71.29-71.29c0-6.622.907-13.178 2.695-19.483 1.132-3.986-1.183-8.132-5.168-9.263z"/><path d="m217.361 294.639c1.464 1.464 3.384 2.196 5.303 2.196s3.839-.732 5.303-2.196l2.883-2.883c3.645.568 9.35 1.243 15.939 1.243 12.652 0 28.51-2.492 39.036-13.018 19.561-19.561 11.375-57.527 11.017-59.135-.633-2.839-2.85-5.056-5.689-5.688-1.606-.357-39.573-8.542-59.134 11.017-16.007 16.007-13.434 44.326-11.775 54.974l-2.882 2.882c-2.93 2.93-2.93 7.678-.001 10.608zm25.264-57.857c9.707-9.707 29.407-9.335 40.417-7.825 1.51 11.018 1.881 30.714-7.823 40.418-7.228 7.227-19.996 8.865-30.594 8.607l12.657-12.657c2.929-2.93 2.929-7.678 0-10.607-2.928-2.928-7.677-2.928-10.606 0l-12.658 12.657c-.258-10.598 1.38-23.366 8.607-30.593z"/><path d="m164.075 98.844h5.632v5.632c0 4.143 3.358 7.5 7.5 7.5s7.5-3.357 7.5-7.5v-5.632h5.632c4.142 0 7.5-3.357 7.5-7.5s-3.358-7.5-7.5-7.5h-5.632v-5.633c0-4.143-3.358-7.5-7.5-7.5s-7.5 3.357-7.5 7.5v5.633h-5.632c-4.142 0-7.5 3.357-7.5 7.5s3.358 7.5 7.5 7.5z"/><path d="m29.724 145.311h5.632v5.633c0 4.143 3.358 7.5 7.5 7.5s7.5-3.357 7.5-7.5v-5.633h5.632c4.142 0 7.5-3.357 7.5-7.5s-3.358-7.5-7.5-7.5h-5.632v-5.632c0-4.143-3.358-7.5-7.5-7.5s-7.5 3.357-7.5 7.5v5.632h-5.632c-4.142 0-7.5 3.357-7.5 7.5s3.358 7.5 7.5 7.5z"/><path d="m190.339 413.156h-5.632v-5.632c0-4.143-3.358-7.5-7.5-7.5s-7.5 3.357-7.5 7.5v5.632h-5.632c-4.142 0-7.5 3.357-7.5 7.5s3.358 7.5 7.5 7.5h5.632v5.633c0 4.143 3.358 7.5 7.5 7.5s7.5-3.357 7.5-7.5v-5.633h5.632c4.142 0 7.5-3.357 7.5-7.5s-3.358-7.5-7.5-7.5z"/><path d="m55.988 366.689h-5.632v-5.633c0-4.143-3.358-7.5-7.5-7.5s-7.5 3.357-7.5 7.5v5.633h-5.632c-4.142 0-7.5 3.357-7.5 7.5s3.358 7.5 7.5 7.5h5.632v5.632c0 4.143 3.358 7.5 7.5 7.5s7.5-3.357 7.5-7.5v-5.632h5.632c4.142 0 7.5-3.357 7.5-7.5s-3.358-7.5-7.5-7.5z"/></g></g></svg>