<svg id="Capa_1" enable-background="new 0 0 512 512" height="512" viewBox="0 0 512 512" width="512" xmlns="http://www.w3.org/2000/svg"><g><path d="m30 512h30v-30h392v30h30v-121h30v-319.541l-35.729-71.459h-440.542l-35.729 71.459v319.541h30zm422-60h-392v-61h392zm-422-91v-211h151v30h-30v30h210v-30h-30v-30h151v211zm203.737-271c7.669 11.449 16.981 21.526 27.505 30h-231.242v-30zm-22.737 90v-30h90v30zm246.729-150 24.271 48.541v41.459h-136c-68.763 0-93.809-58.462-95.294-60h-211.435l15-30z"/><path d="m301 60h30v30h-30z"/><path d="m361 60h30v30h-30z"/><path d="m421 60h30v30h-30z"/><path d="m241 240h30v60h-30z"/><path d="m153.958 247.5h54.083v30h-54.083z" transform="matrix(.555 -.832 .832 .555 -137.814 267.494)"/><path d="m316 235.458h30v54.083h-30z" transform="matrix(.832 -.555 .555 .832 -90.017 227.693)"/></g></svg>