<svg id="Capa_1" enable-background="new 0 0 512.248 512.248" height="512" viewBox="0 0 512.248 512.248" width="512" xmlns="http://www.w3.org/2000/svg"><g><path d="m189.909 90.709c-18.054 0-32.743 14.688-32.743 32.743s14.688 32.743 32.743 32.743 32.743-14.688 32.743-32.743-14.688-32.743-32.743-32.743zm0 50.485c-9.783 0-17.743-7.959-17.743-17.743s7.959-17.743 17.743-17.743 17.743 7.959 17.743 17.743-7.959 17.743-17.743 17.743z"/><path d="m458.134 280.108c-3.376-2.398-8.06-1.604-10.457 1.774-2.397 3.377-1.604 8.059 1.774 10.457 29.804 21.158 47.598 55.578 47.598 92.074 0 62.217-50.617 112.833-112.833 112.833s-112.834-50.616-112.834-112.832 50.616-112.834 112.833-112.834c13.298 0 26.315 2.291 38.69 6.808 3.892 1.42 8.197-.583 9.617-4.474s-.583-8.197-4.474-9.617c-14.028-5.121-28.776-7.717-43.834-7.717-54.523 0-101.175 34.316-119.514 82.48l-4.896-2.406c-4.257-2.091-9.287-1.986-13.454.283-.586.319-1.137.684-1.667 1.074v-26.095c24.825-18.881 40.482-48.299 41.45-80.408h1.667c14.529 0 26.349-11.82 26.349-26.349v-10.034c0-3.786-.809-7.385-2.253-10.642l14.392-39.795c6.619-3.192 11.209-9.95 11.209-17.776v-6.922c0-10.428-8.132-18.971-18.384-19.675v-7.579c0-5.127-4.171-9.298-9.297-9.298h-1.135c-3.601-39.796-35.561-71.536-75.456-74.788-.147-2.566-1.354-4.941-3.36-6.579-2.145-1.751-4.93-2.44-7.643-1.883l-32.316 6.602-32.316-6.602c-2.713-.556-5.499.132-7.644 1.882-2.006 1.638-3.212 4.012-3.36 6.578-14.5 1.178-28.335 6.136-40.364 14.517-3.399 2.368-4.234 7.042-1.867 10.441 2.369 3.399 7.043 4.234 10.441 1.867 11.36-7.915 24.694-12.098 38.56-12.098h.715c3.996 0 7.263-3.126 7.488-7.066l26.846 5.484c.99.202 2.012.202 3.002 0l26.845-5.484c.225 3.94 3.492 7.066 7.488 7.066h.715c37.254 0 67.563 30.309 67.563 67.563 0 4.142 3.358 7.5 7.5 7.5h2.594v1.808h-46.759c-9.653-27.978-36.232-48.138-67.448-48.138s-57.795 20.161-67.448 48.138h-46.754v-1.808h2.594c4.142 0 7.5-3.358 7.5-7.5 0-12.102 3.25-23.986 9.398-34.367 2.111-3.564.933-8.164-2.631-10.275-3.563-2.11-8.164-.933-10.275 2.631-6.242 10.539-10.041 22.342-11.15 34.51h-1.139c-5.126 0-9.297 4.171-9.297 9.298v7.579c-10.252.704-18.384 9.247-18.384 19.675v6.922c0 7.827 4.589 14.584 11.208 17.776l14.392 39.795c-1.444 3.257-2.253 6.856-2.253 10.642v10.034c0 14.529 11.82 26.349 26.35 26.349h1.654c.237 8.695 1.544 17.328 3.914 25.703.935 3.303 3.942 5.46 7.213 5.46.676 0 1.363-.092 2.046-.285 3.986-1.128 6.302-5.273 5.175-9.259-2.254-7.965-3.397-16.201-3.397-24.48v-81.991h13.841c9.653 27.977 36.232 48.138 67.448 48.138s57.794-20.16 67.448-48.138h13.841v81.691c0 37.99-24.055 72.048-59.855 84.749l-.742.263c-13.703 4.861-28.786 4.83-42.468-.087-17.704-6.362-32.735-17.904-43.469-33.379-2.36-3.403-7.034-4.249-10.437-1.888-3.404 2.361-4.249 7.034-1.888 10.437 5.871 8.464 12.855 15.904 20.734 22.201v26.11c-4.088-2.07-8.932-2.126-13.06-.098l-36.708 18.037c-4.342 2.133-7.27 6.197-8.001 10.835-45.635 18.763-75.105 62.717-75.105 112.08v26.949c0 4.142 3.358 7.5 7.5 7.5s7.5-3.358 7.5-7.5v-26.949c0-41.401 23.667-78.443 60.758-95.958l3.701 59.176c.205 3.279 2.521 6.042 5.712 6.819l15.669 3.812 12.084 54.904c.771 3.502 3.874 5.889 7.317 5.889.534 0 1.077-.057 1.62-.177 4.045-.891 6.603-4.892 5.712-8.937l-13.09-59.474c-.616-2.796-2.77-4.999-5.552-5.675l-14.847-3.612-4.148-66.327 36.028-17.703 18.183 155.084c.482 4.114 4.21 7.062 8.322 6.576 4.114-.482 7.058-4.208 6.575-8.323l-12.23-104.316c13.421 7.117 28.154 10.694 42.894 10.694 14.742 0 29.474-3.581 42.895-10.701l-12.231 104.324c-.482 4.114 2.461 7.84 6.575 8.322.297.035.591.052.883.052 3.751 0 6.992-2.81 7.44-6.627l18.182-155.084 6.506 3.197c-2.462 9.891-3.778 20.23-3.778 30.872 0 19.465 4.381 37.925 12.196 54.455-1.726 1.047-2.995 2.758-3.443 4.793l-13.089 59.474c-.89 4.045 1.667 8.047 5.712 8.937.543.12 1.085.177 1.62.177 3.444 0 6.546-2.387 7.317-5.89l11.227-51.01c22.953 34.281 62.03 56.898 106.293 56.898 70.488 0 127.834-57.346 127.834-127.833.002-41.348-20.154-80.34-53.913-104.306zm-158.982-74.948c0 6.258-5.091 11.349-11.349 11.349h-1.604v-32.732h1.604c6.258 0 11.349 5.091 11.349 11.35zm-218.485 0v-10.034c0-6.258 5.091-11.35 11.35-11.35h1.604v32.732h-1.604c-6.259.001-11.35-5.091-11.35-11.348zm12.954-36.384h-1.604c-4.583 0-8.896 1.178-12.654 3.245l-9.173-25.364h23.432v22.119zm-31.558-37.119c-2.616 0-4.744-2.128-4.744-4.744v-6.922c0-2.616 2.128-4.744 4.744-4.744h56.989c-.31 2.694-.486 5.429-.486 8.205s.176 5.511.486 8.206h-56.989zm127.846 48.138c-31.068 0-56.343-25.275-56.343-56.343s25.275-56.343 56.343-56.343 56.343 25.275 56.343 56.343-25.275 56.343-56.343 56.343zm70.857-64.548h56.989c2.616 0 4.744 2.128 4.744 4.744v6.922c0 2.616-2.128 4.744-4.744 4.744h-56.989c.31-2.695.486-5.429.486-8.206.001-2.776-.176-5.51-.486-8.204zm48.863 31.41-9.173 25.364c-3.758-2.066-8.07-3.245-12.653-3.245h-1.604v-22.119zm-164.843 233.698-3.019-25.753.322-.131c3.635-1.483 5.983-4.978 5.983-8.903v-24.919c4.778 2.614 9.783 4.87 14.987 6.74 8.518 3.062 17.474 4.593 26.431 4.593 8.848 0 17.696-1.495 26.123-4.484l.742-.263c4.621-1.64 9.064-3.601 13.331-5.823v24.156c0 3.925 2.348 7.42 5.982 8.903l2.29.934-2.925 24.95c-26.981 19.583-63.266 19.584-90.247 0z"/><path d="m293.001 348.822v71.184c0 4.142 3.358 7.5 7.5 7.5s7.5-3.358 7.5-7.5v-71.184c0-4.142-3.358-7.5-7.5-7.5s-7.5 3.358-7.5 7.5z"/><path d="m367.565 356.322c5.63 0 11.06 1.657 15.701 4.793 3.432 2.318 8.094 1.417 10.413-2.016 2.319-3.432 1.417-8.094-2.016-10.413-7.13-4.818-15.463-7.364-24.098-7.364-23.761 0-43.092 19.331-43.092 43.092s19.331 43.092 43.092 43.092c9.456 0 17.935-3.101 24.522-8.966 1.29-1.149 2.517-2.415 3.646-3.761 2.662-3.174 2.247-7.904-.926-10.566-3.174-2.662-7.905-2.248-10.566.926-.665.792-1.381 1.532-2.13 2.199-3.851 3.429-8.745 5.168-14.546 5.168-15.49 0-28.092-12.602-28.092-28.092s12.602-28.092 28.092-28.092z"/><path d="m427.701 397.95v-49.515c0-4.142-3.358-7.5-7.5-7.5s-7.5 3.358-7.5 7.5v49.515c0 10.461 4.825 18.628 14.75 24.969 5.151 3.292 10.969 4.965 17.292 4.974h.051c5.458 0 10.579-1.185 15.22-3.521 14.619-7.362 17.688-18.46 17.688-26.473v-49.462c0-4.142-3.358-7.5-7.5-7.5s-7.5 3.358-7.5 7.5v49.462c0 3.574-.978 8.817-9.434 13.076-2.528 1.273-5.379 1.918-8.474 1.918-.01 0-.02 0-.03 0-3.47-.005-6.491-.859-9.236-2.614-5.56-3.552-7.827-7.124-7.827-12.329z"/></g></svg>