<svg id="Capa_1" enable-background="new 0 0 512 512" height="512" viewBox="0 0 512 512" width="512" xmlns="http://www.w3.org/2000/svg"><g><path d="m503.053 172.765-20.728-12.159c-2.776-1.629-5.945-2.49-9.165-2.49h-49.99v-42.006c0-4.704-1.548-9.371-4.358-13.141l-30.798-41.33c-4.13-5.543-10.723-8.852-17.635-8.852h-9.082v-28.117c0-13.603-11.066-24.67-24.67-24.67h-146.008c-4.143 0-7.5 3.357-7.5 7.5s3.357 7.5 7.5 7.5h146.008c5.332 0 9.67 4.338 9.67 9.67v28.118h-240.458v-28.118c0-5.332 4.338-9.67 9.67-9.67h45.123c4.143 0 7.5-3.357 7.5-7.5s-3.357-7.5-7.5-7.5h-45.123c-13.604 0-24.67 11.067-24.67 24.67v28.118h-9.082c-6.912 0-13.505 3.309-17.635 8.852l-30.799 41.33c-2.811 3.771-4.357 8.438-4.357 13.141v99.074c0 4.143 3.357 7.5 7.5 7.5s7.5-3.357 7.5-7.5v-99.075c0-1.495.492-2.979 1.385-4.178l30.799-41.33c1.313-1.763 3.409-2.814 5.607-2.814h288.622c2.198 0 4.294 1.052 5.607 2.814l30.799 41.331c.893 1.198 1.385 2.682 1.385 4.177v261.102h-34.714v-8.771c0-10.325-8.4-18.726-18.727-18.726h-121.404c.586-9.905 4.611-28.826 25.364-40.567 6.978 17.089 23.631 27.787 41.409 27.787 4.655 0 9.39-.734 14.044-2.278h.001c7.653-2.54 11.814-10.833 9.274-18.486-5.604-16.896-20.382-28.221-36.971-30.291 6.655-9.518 9.56-19.203 10.771-26.753 4.535 1.21 9.107 1.801 13.62 1.801 22.276 0 43.079-14.133 50.468-36.406 1.366-4.116 1.047-8.519-.898-12.395-1.945-3.877-5.283-6.764-9.4-8.129-23.341-7.745-48.315 1.672-61.189 21.345-11.365-14.148-30.754-20.515-48.964-14.475-7.653 2.54-11.814 10.833-9.274 18.485 3.76 11.336 11.709 20.528 22.383 25.885 6.318 3.17 13.142 4.771 20.01 4.771 2.657 0 5.321-.249 7.965-.73-5.568 25.733-26.649 34.1-34.234 38.956-5.123-14.975-18.933-39.989-55.617-54.391-7.83-3.074-14.272-6.896-19.581-11.11 10.719-6.472 27.903-19.027 39.084-38.097.599.066 1.201.112 1.809.112.688 0 1.38-.042 2.073-.128 14.519-1.802 27.467-9.149 36.459-20.69s12.952-25.893 11.149-40.412c-.545-4.387-2.765-8.3-6.252-11.017-3.488-2.718-7.827-3.918-12.212-3.369-14.519 1.802-27.467 9.149-36.459 20.69-8.992 11.54-12.952 25.893-11.15 40.41.273 2.198.967 4.276 2.029 6.146-10.667 18.632-28.801 30.469-37.466 35.338-11.493-14.777-13.432-30.64-13.75-36.204 1.702-2.182 2.837-4.768 3.268-7.578 4.521-29.445-15.755-57.08-45.2-61.604-4.336-.667-8.665.397-12.199 2.989-3.533 2.593-5.847 6.406-6.512 10.739-4.521 29.445 15.755 57.081 45.201 61.604.349.054.697.089 1.046.12.75 5.363 2.342 12.766 5.718 20.843 2.944 7.044 7.574 15.296 14.793 23.192.172.213.356.41.548.601.035.038.07.076.105.113-14.692 2.808-27.661 12.901-33.415 27.86-1.402 3.646-1.301 7.62.286 11.189 1.587 3.57 4.469 6.309 8.114 7.71 5.213 2.005 10.644 3.005 16.067 3.005 6.171 0 12.332-1.296 18.142-3.877 10.772-4.788 19.06-13.438 23.396-24.38 36.743 14.664 45.828 41.188 47.937 50.579-13.447 14.324-16.391 31.172-16.818 41.098h-120.891c-10.326 0-18.727 8.4-18.727 18.726v8.771h-34.713v-132.04c0-4.143-3.357-7.5-7.5-7.5s-7.5 3.357-7.5 7.5v132.04h-10.357c-10.261-.001-18.609 8.347-18.609 18.608v97.57c0 10.261 8.348 18.609 18.609 18.609h414.917c10.261 0 18.609-8.348 18.609-18.608v-29.846c0-4.143-3.357-7.5-7.5-7.5s-7.5 3.357-7.5 7.5v29.846c0 1.989-1.619 3.608-3.609 3.608h-414.917c-1.99 0-3.609-1.619-3.609-3.608v-97.57c0-1.99 1.619-3.609 3.609-3.609h414.917c1.99 0 3.609 1.619 3.609 3.609v37.737c0 4.143 3.357 7.5 7.5 7.5s7.5-3.357 7.5-7.5v-37.737c0-10.262-8.349-18.609-18.609-18.609h-10.356v-58.479h49.99c3.22 0 6.389-.861 9.165-2.49l20.729-12.159c5.519-3.238 8.946-9.225 8.946-15.623v-100.075c0-6.399-3.428-12.384-8.947-15.622zm-193.635 147.655s-.002.001-.003.001c.001 0 .002-.001.003-.001zm-.358.116c-15.331 4.876-31.819-3.403-37.075-18.605 7.429-2.362 15.341-1.741 22.321 1.762 6.981 3.502 12.208 9.474 14.754 16.843zm8.117-100.191c9.104-4.569 19.441-5.316 29.106-2.111.647.215 1 .917.785 1.564-3.207 9.667-9.986 17.506-19.09 22.074s-19.441 5.316-29.106 2.111c-.402-.134-.611-.411-.717-.62-.021-.042-.041-.093-.059-.145-.009-.207-.029-.413-.047-.619.01-.06.017-.118.038-.181 3.207-9.666 9.986-17.505 19.09-22.073zm-71.241 4.642c15.333-4.877 31.82 3.402 37.075 18.604-15.333 4.872-31.82-3.4-37.075-18.604zm-25.949-75.945c6.529-8.38 15.932-13.716 26.476-15.024.069-.008.137-.013.201-.013.425 0 .742.173.942.329.231.18.521.506.586 1.032 2.702 21.764-12.807 41.667-34.569 44.368-.844.121-1.627-.499-1.731-1.348v-.001c-1.309-10.542 1.566-20.963 8.095-29.343zm-117.986-16.706c.106-.696.709-1.196 1.393-1.196.071 0 .143.006.215.017 21.271 3.268 35.918 23.23 32.651 44.501-.117.769-.844 1.288-1.606 1.179-21.272-3.269-35.92-23.231-32.653-44.501zm33.308 137.087c5.963-14.938 22.822-22.431 37.906-16.846-5.962 14.94-22.823 22.434-37.906 16.846zm-41.629 99.017c0-2.055 1.672-3.726 3.727-3.726h257.323c2.055 0 3.727 1.671 3.727 3.726v8.771h-264.777zm403.32-79.979c0 1.1-.589 2.129-1.537 2.686l-20.728 12.159c-.478.279-1.022.428-1.575.428h-49.99v-130.619h49.99c.553 0 1.098.148 1.575.428l20.727 12.159c.949.557 1.538 1.585 1.538 2.685z"/><path d="m474.145 200.26c-4.143 0-7.5 3.357-7.5 7.5v7.437c0 4.143 3.357 7.5 7.5 7.5s7.5-3.357 7.5-7.5v-7.437c0-4.143-3.358-7.5-7.5-7.5z"/><path d="m474.145 254.152c-4.143 0-7.5 3.357-7.5 7.5v7.437c0 4.143 3.357 7.5 7.5 7.5s7.5-3.357 7.5-7.5v-7.437c0-4.142-3.358-7.5-7.5-7.5z"/><path d="m443.938 185.75c-4.143 0-7.5 3.357-7.5 7.5v90.349c0 4.143 3.357 7.5 7.5 7.5s7.5-3.357 7.5-7.5v-90.349c0-4.143-3.357-7.5-7.5-7.5z"/><path d="m160.632 26.395h-14.74c-4.143 0-7.5 3.357-7.5 7.5s3.357 7.5 7.5 7.5h14.74c4.143 0 7.5-3.357 7.5-7.5s-3.358-7.5-7.5-7.5z"/><path d="m233.438 41.395c4.143 0 7.5-3.357 7.5-7.5s-3.357-7.5-7.5-7.5h-14.739c-4.143 0-7.5 3.357-7.5 7.5s3.357 7.5 7.5 7.5z"/><path d="m306.244 41.395c4.143 0 7.5-3.357 7.5-7.5s-3.357-7.5-7.5-7.5h-14.74c-4.143 0-7.5 3.357-7.5 7.5s3.357 7.5 7.5 7.5z"/><path d="m300.777 444.606c0 17.771 14.457 32.228 32.228 32.228s32.228-14.457 32.228-32.228-14.457-32.228-32.228-32.228-32.228 14.458-32.228 32.228zm49.455 0c0 9.499-7.729 17.228-17.228 17.228s-17.228-7.729-17.228-17.228 7.729-17.228 17.228-17.228 17.228 7.729 17.228 17.228z"/><path d="m193.841 444.606c0 17.771 14.457 32.228 32.227 32.228 17.771 0 32.228-14.457 32.228-32.228s-14.457-32.228-32.228-32.228c-17.77.001-32.227 14.458-32.227 32.228zm49.454 0c0 9.499-7.729 17.228-17.228 17.228s-17.227-7.729-17.227-17.228 7.728-17.228 17.227-17.228 17.228 7.729 17.228 17.228z"/><path d="m86.903 444.606c0 17.771 14.457 32.228 32.228 32.228s32.228-14.457 32.228-32.228-14.457-32.228-32.228-32.228-32.228 14.458-32.228 32.228zm49.455 0c0 9.499-7.729 17.228-17.228 17.228s-17.228-7.729-17.228-17.228 7.729-17.228 17.228-17.228 17.228 7.729 17.228 17.228z"/><path d="m395.297 441.784v5.645c0 4.143 3.357 7.5 7.5 7.5s7.5-3.357 7.5-7.5v-5.645c0-4.143-3.357-7.5-7.5-7.5s-7.5 3.358-7.5 7.5z"/><path d="m41.839 441.784v5.645c0 4.143 3.357 7.5 7.5 7.5s7.5-3.357 7.5-7.5v-5.645c0-4.143-3.357-7.5-7.5-7.5s-7.5 3.358-7.5 7.5z"/></g></svg>