<svg id="Layer_3" enable-background="new 0 0 64 64" height="512" viewBox="0 0 64 64" width="512" xmlns="http://www.w3.org/2000/svg"><g><path d="m62 57h-1v-45c0-.553-.447-1-1-1h-11v-9c0-.553-.447-1-1-1h-32c-.553 0-1 .447-1 1v9h-11c-.553 0-1 .447-1 1v45h-1c-.553 0-1 .447-1 1v4c0 .553.447 1 1 1h60c.553 0 1-.447 1-1v-4c0-.553-.447-1-1-1zm-9 0v-2h6v2zm6-24h-12v-10h12zm-14 0h-12v-10h12zm-14 0h-12v-10h12zm-14 0h-12v-10h12zm42 2v18h-6v-1c0-3.859-3.141-7-7-7s-7 3.141-7 7v1h-14v-1c0-3.859-3.141-7-7-7s-7 3.141-7 7v1h-6v-18zm-46 17c0-2.757 2.243-5 5-5s5 2.243 5 5v5h-10zm12 3h14v2h-14zm16-3c0-2.757 2.243-5 5-5s5 2.243 5 5v5h-10zm-24-49h30v14h-30zm-2 10v5c0 .553.447 1 1 1h32c.553 0 1-.447 1-1v-5h10v8h-54v-8zm-10 42h6v2h-6zm56 6h-58v-2h58z"/><path d="m21 5h-2v9c0 .553.447 1 1 1h5v-2h-4z"/><path d="m31 5c-2.206 0-4 1.794-4 4v6h2v-2h4v2h2v-6c0-2.206-1.794-4-4-4zm-2 6v-2c0-1.103.897-2 2-2s2 .897 2 2v2z"/><path d="m42 5h-4c-.553 0-1 .447-1 1v4 4c0 .553.447 1 1 1h4c1.654 0 3-1.346 3-3 0-.771-.301-1.468-.78-2 .479-.532.78-1.229.78-2 0-1.654-1.346-3-3-3zm-3 2h3c.552 0 1 .448 1 1s-.448 1-1 1h-3zm3 6h-3v-2h3c.552 0 1 .448 1 1s-.448 1-1 1z"/><path d="m12 43h12c.553 0 1-.447 1-1v-4c0-.553-.447-1-1-1h-12c-.553 0-1 .447-1 1v4c0 .553.447 1 1 1zm1-4h10v2h-10z"/><path d="m40 43h12c.553 0 1-.447 1-1v-4c0-.553-.447-1-1-1h-12c-.553 0-1 .447-1 1v4c0 .553.447 1 1 1zm1-4h10v2h-10z"/></g></svg>