<?xml version="1.0" standalone="no"?>
<!DOCTYPE svg PUBLIC "-//W3C//DTD SVG 20010904//EN"
 "http://www.w3.org/TR/2001/REC-SVG-20010904/DTD/svg10.dtd">
<svg version="1.0" xmlns="http://www.w3.org/2000/svg"
 width="174.000000pt" height="168.000000pt" viewBox="0 0 174.000000 168.000000"
 preserveAspectRatio="xMidYMid meet">
<metadata>
Created by potrace 1.10, written by Peter Selinger 2001-2011
</metadata>
<g transform="translate(0.000000,168.000000) scale(0.100000,-0.100000)"
fill="#000000" stroke="none">
<path d="M756 1650 c-227 -41 -433 -193 -530 -390 -63 -128 -79 -212 -73 -365
4 -82 12 -141 26 -185 118 -369 490 -583 862 -497 236 55 444 247 526 484 31
94 42 261 24 369 -25 139 -115 303 -218 394 -147 130 -283 187 -468 195 -55 2
-122 0 -149 -5z m273 -25 c164 -34 319 -136 420 -275 165 -227 184 -510 53
-765 -51 -98 -191 -237 -291 -289 -104 -54 -181 -76 -292 -83 -220 -13 -404
60 -560 225 -354 370 -211 984 269 1159 37 14 85 28 107 33 67 13 220 11 294
-5z"/>
<path d="M700 1601 c-84 -24 -131 -45 -199 -88 -369 -236 -429 -743 -127
-1072 71 -76 199 -154 308 -185 87 -25 103 -18 18 8 -91 28 -136 48 -192 83
-62 40 -128 95 -128 106 0 6 8 3 18 -6 33 -30 42 -18 10 13 -34 35 -40 37 -31
13 3 -11 -8 -5 -28 15 -32 31 -33 34 -16 46 10 8 27 12 38 9 15 -4 22 0 26 16
7 26 31 24 55 -4 10 -12 17 -15 18 -7 0 20 -4 27 -15 24 -5 -1 1 7 15 18 l25
20 -27 0 c-15 0 -30 -4 -33 -10 -9 -15 -45 -12 -45 4 0 9 -8 12 -26 8 -30 -5
-41 -26 -25 -46 9 -10 8 -15 -4 -20 -9 -3 -15 0 -15 9 0 7 -5 17 -11 21 -8 4
-9 -1 -4 -17 11 -41 -32 35 -60 103 -40 98 -59 209 -52 308 13 191 97 357 244
482 64 54 215 133 238 124 8 -3 15 -2 15 3 0 14 108 31 195 31 142 0 287 -49
401 -136 166 -127 257 -299 270 -513 7 -103 -6 -181 -47 -294 -19 -52 -23 -56
-35 -40 -11 16 -11 20 6 35 11 9 20 22 20 30 0 10 -3 9 -10 -2 -8 -13 -10 -12
-10 3 0 12 -8 17 -30 17 -23 0 -31 -5 -36 -24 -8 -33 -42 -42 -40 -11 0 13 4
21 8 19 8 -5 44 107 53 166 5 33 3 40 -7 35 -10 -6 -11 -5 0 6 6 7 12 17 12
22 0 4 -6 5 -12 1 -10 -6 -10 -4 0 7 14 15 16 43 2 34 -6 -3 -7 1 -4 9 3 9 1
16 -5 16 -6 0 -11 -7 -11 -16 0 -11 -5 -14 -16 -10 -9 3 -18 6 -20 6 -2 0 -4
7 -4 16 0 8 5 12 10 9 6 -3 20 -3 31 0 22 7 22 10 -7 113 -10 34 -20 52 -30
52 -11 0 -14 -6 -10 -16 3 -9 6 -18 6 -20 0 -3 5 -2 11 2 8 4 8 0 0 -15 -7
-13 -9 -36 -5 -58 l7 -36 13 29 c9 19 12 21 8 7 -3 -15 -1 -23 8 -24 7 0 4 -4
-7 -9 -23 -9 -40 3 -40 27 0 9 -5 18 -12 20 -11 4 -8 -63 4 -97 4 -8 5 -21 4
-27 -1 -7 5 -13 13 -13 10 0 13 6 9 18 -6 15 -5 15 10 3 28 -22 21 -51 -13
-57 -16 -4 -30 -10 -30 -15 0 -11 3 -11 34 1 19 7 26 6 27 -3 0 -6 2 -22 3
-34 3 -27 2 -28 -18 -7 -9 8 -16 11 -16 5 0 -6 -4 -11 -10 -11 -5 0 -7 7 -4
15 4 8 1 15 -5 15 -6 0 -11 -11 -11 -25 0 -16 5 -23 13 -19 7 2 21 -2 32 -10
20 -15 20 -15 -1 -16 -27 0 -55 -57 -35 -69 10 -6 9 -11 -2 -23 -8 -7 -18 -24
-21 -36 -4 -13 -16 -22 -27 -22 -20 0 -20 0 0 22 11 11 18 26 14 31 -3 6 -1 7
5 3 7 -4 12 -2 12 3 0 6 -4 11 -9 11 -5 0 -7 9 -4 20 3 11 10 20 15 20 6 0 8
7 4 15 -3 8 -1 15 4 15 6 0 10 5 10 10 0 6 -4 10 -8 10 -10 0 -58 -109 -56
-127 1 -7 -3 -11 -10 -10 -6 1 -10 -6 -10 -15 1 -10 -2 -16 -6 -13 -10 6 -61
-61 -52 -69 3 -4 20 10 37 30 20 23 37 35 50 33 18 -4 18 -5 0 -22 -15 -16
-16 -20 -4 -28 9 -6 10 -9 2 -9 -7 0 -17 8 -22 18 -9 15 -12 15 -20 2 -7 -10
-6 -17 2 -22 7 -4 10 -8 7 -9 -3 0 -14 -2 -25 -4 -10 -2 -25 1 -32 7 -16 13
-74 -30 -68 -50 4 -10 -1 -11 -16 -7 -16 5 -19 4 -14 -5 5 -8 4 -11 -3 -6 -12
7 -82 -23 -82 -35 0 -4 4 -19 10 -33 9 -24 8 -25 -18 -15 -37 14 -69 4 -67
-21 2 -25 15 -39 15 -16 0 13 5 16 17 12 21 -8 125 22 118 34 -3 5 0 7 8 4 17
-6 113 60 109 76 -1 6 2 8 8 5 14 -9 52 24 43 38 -3 5 -1 7 5 3 5 -3 24 11 41
33 33 41 39 56 19 46 -7 -4 -6 -1 3 7 9 7 14 20 12 28 -2 8 2 5 10 -8 7 -12
16 -19 20 -15 4 4 14 8 22 9 11 2 13 -4 9 -22 -7 -29 18 -43 41 -24 23 19 29
5 10 -24 l-17 -26 -29 21 c-24 17 -28 25 -23 47 6 23 3 21 -21 -13 -15 -22
-32 -46 -38 -53 -8 -10 -7 -13 4 -12 29 4 58 -11 52 -28 -4 -10 -2 -13 5 -8 7
4 12 18 12 31 0 18 4 23 15 19 8 -4 15 -11 15 -17 0 -6 -39 -49 -87 -96 -96
-94 -185 -145 -305 -177 -73 -18 -92 -30 -33 -20 201 36 396 189 486 381 54
116 73 215 66 339 -17 308 -228 565 -528 640 -89 22 -254 21 -339 -3z m693
-516 c-3 -9 -8 -14 -10 -11 -3 3 -2 9 2 15 9 16 15 13 8 -4z m7 -324 c0 -5 -7
-11 -15 -15 -9 -3 -15 0 -15 9 0 8 7 15 15 15 8 0 15 -4 15 -9z m61 -99 c-6
-10 -7 -23 -3 -27 4 -5 1 -5 -6 -1 -9 5 -12 3 -10 -7 2 -9 -1 -17 -7 -19 -5
-2 -10 12 -11 29 -1 19 2 30 8 27 5 -3 12 4 15 16 4 13 9 18 15 12 6 -6 6 -17
-1 -30z m-1077 -78 c10 -26 -4 -37 -25 -18 -10 9 -16 21 -13 25 9 15 31 10 38
-7z m1012 -15 c3 -6 2 -15 -2 -19 -12 -12 -38 5 -30 19 9 14 23 14 32 0z
m-157 -33 l24 -13 -26 0 c-15 0 -32 6 -38 13 -15 19 7 18 40 0z m-49 -26 c0
-23 -61 -56 -86 -46 -14 5 -15 4 -5 -8 10 -12 8 -16 -10 -21 -17 -6 -19 -9 -8
-16 16 -10 8 -12 -15 -3 -8 3 -12 12 -9 20 3 8 -1 14 -8 14 -12 0 -4 14 9 16
4 0 14 4 23 8 9 4 20 6 25 5 21 -6 54 14 54 32 0 10 7 19 15 19 8 0 15 -9 15
-20z m-180 -110 c18 -12 2 -12 -25 0 -13 6 -15 9 -5 9 8 0 22 -4 30 -9z"/>
<path d="M777 1583 c-7 -14 5 -83 15 -83 5 0 6 9 3 20 -5 14 -2 20 9 20 9 0
16 5 16 11 0 6 -7 9 -15 5 -8 -3 -15 -1 -15 4 0 6 7 10 15 10 8 0 15 5 15 10
0 12 -37 14 -43 3z"/>
<path d="M836 1573 c-6 -14 -5 -15 5 -6 7 7 10 15 7 18 -3 3 -9 -2 -12 -12z"/>
<path d="M877 1573 c-3 -10 -9 -29 -13 -43 -6 -23 -6 -24 11 -10 14 11 19 12
22 3 10 -28 19 -11 14 24 -7 40 -26 55 -34 26z m23 -23 c0 -5 -4 -10 -10 -10
-5 0 -10 5 -10 10 0 6 5 10 10 10 6 0 10 -4 10 -10z"/>
<path d="M933 1543 c0 -27 1 -36 4 -20 2 15 9 25 15 21 6 -4 8 3 6 17 -6 43
-24 30 -25 -18z"/>
<path d="M977 1583 c-12 -18 -19 -83 -9 -83 5 0 12 19 16 41 6 40 3 59 -7 42z"/>
<path d="M712 1571 c-10 -6 -11 -19 -7 -45 6 -30 11 -37 29 -34 23 3 31 27 22
64 -7 25 -21 30 -44 15z m31 -33 c7 -27 -2 -45 -14 -27 -11 18 -11 49 0 49 5
0 11 -10 14 -22z"/>
<path d="M1006 1558 c-12 -48 -7 -70 16 -66 31 4 47 57 22 75 -25 18 -31 17
-38 -9z m34 -22 c0 -24 -16 -43 -26 -33 -8 7 7 57 17 57 5 0 9 -11 9 -24z"/>
<path d="M1075 1524 c-18 -43 -18 -44 -5 -44 6 0 10 7 10 16 0 9 6 14 13 11 6
-2 11 -15 10 -28 -2 -18 2 -14 17 16 10 22 16 42 13 45 -3 3 -8 -1 -10 -7 -8
-22 -32 -15 -26 7 9 33 -6 22 -22 -16z"/>
<path d="M618 1543 c-21 -5 -24 -23 -4 -23 7 0 19 -14 26 -30 17 -40 26 -30
11 11 -9 25 -8 34 1 41 14 9 -3 9 -34 1z"/>
<path d="M580 1518 c0 -9 5 -20 11 -23 6 -4 8 -13 5 -21 -3 -7 -1 -16 5 -20
20 -12 20 5 0 43 -11 21 -20 30 -21 21z"/>
<path d="M1140 1490 c-11 -22 -16 -40 -10 -40 5 0 10 7 10 16 0 9 6 14 13 11
6 -2 11 -15 10 -28 -2 -23 -1 -22 9 4 7 15 15 27 20 27 16 0 7 30 -12 40 -17
9 -22 5 -40 -30z m40 5 c0 -8 -4 -15 -9 -15 -13 0 -22 16 -14 24 11 11 23 6
23 -9z"/>
<path d="M540 1506 c0 -7 41 -76 45 -76 9 0 -3 50 -15 64 -12 15 -30 22 -30
12z"/>
<path d="M500 1476 c-9 -12 -7 -21 11 -45 26 -36 32 -37 50 -14 12 15 12 16
-4 10 -28 -10 -41 3 -20 19 17 14 17 15 -4 9 -25 -7 -30 4 -11 23 8 8 8 12 1
12 -6 0 -16 -6 -23 -14z"/>
<path d="M810 1478 c0 -5 -5 -6 -10 -3 -30 19 -249 -67 -242 -95 1 -6 -2 -9
-7 -6 -13 8 -62 -34 -55 -46 4 -6 2 -8 -3 -5 -6 4 -18 -2 -28 -13 -16 -17 -16
-21 -1 -42 17 -24 17 -24 21 10 1 12 -2 22 -8 22 -6 0 -7 3 -4 6 4 4 13 1 22
-6 8 -7 16 -10 16 -6 1 3 2 10 3 15 0 5 5 13 10 18 5 5 6 3 2 -4 -4 -7 -2 -13
3 -13 6 0 11 5 11 12 0 6 3 8 6 5 4 -4 2 -13 -4 -20 -7 -8 -8 -17 -4 -21 4 -4
0 -6 -8 -4 -8 2 -14 -3 -12 -10 1 -8 -2 -11 -8 -7 -6 4 -16 -7 -23 -24 -12
-28 -15 -30 -32 -17 -16 11 -17 17 -7 29 9 11 10 17 2 22 -14 8 -41 -25 -35
-42 2 -7 -1 -12 -8 -10 -7 1 -11 -8 -9 -23 1 -16 -1 -21 -6 -12 -9 13 -28 -23
-55 -103 -12 -38 -12 -42 10 -63 13 -12 23 -18 23 -12 0 5 4 10 9 10 4 0 6
-11 3 -25 -2 -14 -11 -25 -21 -25 -12 0 -13 -2 -3 -9 8 -4 13 -12 12 -17 -1
-5 4 -10 11 -13 8 -2 10 2 6 12 -3 8 -3 18 1 21 3 4 7 14 8 24 9 57 18 91 36
125 10 21 17 41 14 44 -5 5 28 46 85 105 20 21 34 38 30 38 -3 0 10 8 29 19
19 10 36 26 38 35 4 18 -13 22 -23 6 -4 -6 -10 -8 -15 -5 -5 3 -7 -3 -5 -13 2
-11 -3 -19 -11 -19 -18 0 -18 36 0 43 8 3 12 13 9 22 -4 13 -3 14 5 3 8 -11
14 -10 36 4 14 9 23 21 20 26 -3 5 2 6 10 3 9 -3 16 -1 16 5 0 6 7 8 16 4 13
-5 13 -7 2 -14 -16 -10 2 -12 26 -3 15 6 15 8 -1 21 -17 13 -16 13 4 4 12 -6
32 -11 45 -11 21 1 21 2 -7 15 -19 10 -22 13 -7 9 14 -3 22 -1 23 8 0 7 4 4 9
-7 13 -31 13 -32 -30 -39 -23 -3 -43 -13 -46 -21 -4 -10 -12 -12 -31 -4 -31
12 -36 11 -28 -1 3 -5 2 -10 -4 -10 -6 0 -8 -7 -5 -15 5 -13 10 -13 42 1 21 8
38 19 40 24 2 5 10 6 18 3 8 -3 14 -1 14 3 0 5 26 10 57 12 32 2 61 9 65 15 6
9 8 9 8 0 0 -7 5 -13 10 -13 6 0 10 7 10 15 0 18 -31 20 -49 3 -11 -11 -11 -9
-2 9 9 17 20 21 55 21 25 0 55 3 68 7 23 6 23 6 2 -7 -12 -7 -19 -19 -17 -25
3 -7 0 -13 -7 -13 -6 0 -8 -5 -4 -11 4 -8 9 -7 15 2 7 12 9 12 9 0 0 -7 6 -11
15 -7 8 3 15 1 15 -5 0 -6 7 -9 15 -5 8 3 15 1 15 -5 0 -6 7 -9 15 -5 8 3 15
1 15 -4 0 -9 39 -26 53 -22 5 1 5 -3 1 -9 -5 -9 -2 -10 10 -6 10 4 15 3 11 -3
-6 -9 8 -14 27 -11 5 0 7 -4 5 -10 -1 -6 4 -14 11 -16 14 -6 16 13 2 22 -16
10 -12 42 6 49 8 3 12 11 9 17 -4 6 -14 8 -22 5 -8 -3 -12 -2 -9 3 6 9 -67 48
-102 55 -9 1 -26 7 -36 11 -11 5 -34 9 -52 9 -18 1 -30 4 -28 8 2 3 -27 6 -66
5 -38 0 -70 -5 -70 -9z m30 -33 c0 -15 -26 -32 -36 -23 -2 3 -2 13 2 22 8 20
34 21 34 1z m176 -1 c0 -9 5 -19 13 -22 8 -3 11 0 7 7 -4 6 -3 11 3 11 5 0 9
-9 8 -20 -1 -11 -2 -20 -3 -20 -1 0 -19 7 -40 16 -36 15 -37 17 -19 30 25 18
33 18 31 -2z m98 -45 c-2 -4 6 -9 18 -11 16 -2 24 -10 25 -28 1 -15 0 -18 -3
-7 -3 9 -10 15 -15 12 -5 -4 -9 -1 -9 5 0 7 -7 9 -16 6 -8 -3 -12 -2 -9 4 3 6
1 10 -4 10 -6 0 -11 -5 -11 -11 0 -8 -5 -7 -16 2 -14 11 -13 15 8 30 16 12 25
14 30 6 4 -6 5 -14 2 -18z m-654 -201 c0 -6 -3 -9 -6 -5 -9 9 -32 -17 -32 -34
2 -35 -3 -60 -11 -55 -7 5 -22 -27 -25 -56 -2 -12 -16 -21 -16 -10 0 7 -5 11
-11 10 -6 -2 -14 4 -16 12 -3 10 -2 11 4 3 6 -8 14 -9 23 -3 13 8 12 11 -5 24
-19 14 -19 15 8 21 20 5 26 12 22 24 -8 26 23 81 46 81 10 0 19 -5 19 -12z"/>
<path d="M1207 1462 c-30 -31 -34 -44 -12 -36 10 4 15 0 15 -15 0 -34 14 -24
28 20 17 54 3 67 -31 31z m23 -12 c0 -5 -5 -10 -11 -10 -5 0 -7 5 -4 10 3 6 8
10 11 10 2 0 4 -4 4 -10z"/>
<path d="M457 1443 c-6 -10 21 -73 31 -73 4 0 13 4 21 9 12 8 10 15 -10 39
-25 32 -35 38 -42 25z m41 -59 c-4 -3 -12 5 -18 18 -12 22 -12 22 6 6 10 -10
15 -20 12 -24z"/>
<path d="M910 1433 c0 -13 5 -23 10 -23 13 0 13 11 0 30 -8 12 -10 11 -10 -7z"/>
<path d="M1275 1400 c-28 -29 -29 -54 -2 -31 8 6 21 9 29 6 23 -9 44 21 28 40
-17 21 -22 19 -55 -15z m45 0 c0 -5 -7 -10 -16 -10 -8 0 -12 5 -9 10 3 6 10
10 16 10 5 0 9 -4 9 -10z"/>
<path d="M420 1411 c0 -14 40 -61 52 -61 6 0 3 9 -7 20 -10 11 -15 20 -10 20
4 0 2 7 -5 15 -14 16 -30 20 -30 6z"/>
<path d="M390 1382 c0 -6 9 -17 21 -25 14 -10 16 -16 7 -19 -7 -3 -3 -7 10
-10 34 -9 32 4 -4 35 -19 16 -34 24 -34 19z"/>
<path d="M770 1383 c-53 -10 -168 -74 -215 -120 -65 -65 -90 -106 -118 -188
-60 -177 -14 -362 121 -486 65 -59 145 -105 196 -112 15 -2 31 -9 35 -16 6
-10 10 -9 14 3 4 9 3 16 -2 16 -8 0 -31 44 -31 61 0 6 4 8 9 5 4 -3 8 2 8 12
0 29 15 62 24 56 5 -3 7 -9 4 -14 -3 -5 -1 -11 5 -15 7 -4 6 -13 -1 -27 -6
-11 -9 -29 -6 -39 3 -10 0 -19 -5 -19 -7 0 -7 -4 -1 -13 13 -15 25 -80 15 -73
-4 2 -9 -7 -10 -22 l-2 -27 16 23 c10 15 13 32 9 52 -4 19 -3 30 4 30 12 0 13
-4 15 -50 0 -16 -3 -30 -7 -30 -5 0 -5 -4 -2 -10 3 -5 1 -19 -5 -30 -12 -23
-5 -26 16 -6 8 8 14 34 14 57 0 28 6 46 18 55 27 21 31 17 27 -29 -4 -53 25
-108 54 -100 10 3 22 0 26 -7 8 -14 -22 -61 -38 -59 -33 4 -71 -2 -59 -10 8
-5 -1 -8 -25 -8 -21 0 -28 2 -15 4 12 2 22 8 22 13 0 5 -13 5 -30 0 -23 -7
-30 -5 -30 5 0 7 5 15 12 17 6 2 9 12 5 21 -10 25 -26 21 -19 -5 5 -22 5 -22
-19 -7 -34 23 -37 49 -5 49 14 0 28 5 32 11 5 9 -1 10 -20 5 -26 -6 -37 8 -13
17 7 4 6 6 -4 6 -11 1 -23 -14 -32 -38 -16 -38 -13 -81 5 -81 5 0 17 -7 25
-16 13 -13 33 -15 96 -12 52 2 82 8 85 16 2 6 9 12 16 12 7 0 17 10 23 23 14
31 -11 84 -32 67 -22 -18 -44 27 -46 93 -1 32 -7 61 -12 64 -6 4 -8 0 -4 -10
3 -10 2 -17 -3 -17 -6 0 -11 17 -11 38 -1 20 -3 29 -6 20 -7 -26 -39 -24 -36
2 2 10 0 11 -3 2 -7 -16 -24 -6 -24 15 0 11 5 13 18 8 9 -4 28 -7 41 -6 31 1
47 -9 30 -20 -12 -8 -11 -11 1 -19 11 -7 17 -5 21 8 4 9 1 20 -6 24 -7 4 -16
19 -19 33 -4 14 -10 23 -15 20 -5 -2 -11 1 -14 8 -6 16 20 53 30 42 5 -4 2
-10 -4 -12 -7 -3 -13 -9 -13 -14 0 -6 4 -8 9 -5 5 3 11 -4 14 -16 6 -21 7 -21
25 -5 10 9 22 14 25 10 4 -3 7 2 7 12 0 14 -3 15 -15 5 -12 -10 -15 -10 -15 4
0 9 4 16 9 16 21 0 41 -13 41 -26 0 -8 5 -14 11 -14 5 0 7 -5 4 -10 -4 -6 -11
-7 -17 -4 -8 5 -9 1 -5 -10 6 -14 3 -17 -9 -12 -8 3 -18 6 -20 6 -3 0 -2 6 2
13 4 7 3 9 -2 4 -13 -12 -12 -30 3 -45 16 -16 17 -29 3 -37 -6 -3 -7 1 -4 9 4
9 1 16 -6 16 -8 0 -10 -12 -6 -37 3 -21 3 -32 0 -25 -8 17 -24 5 -19 -13 3 -8
7 -22 10 -31 3 -9 10 -12 17 -8 7 5 21 9 30 9 22 2 34 13 24 22 -4 4 -21 0
-37 -9 -16 -9 -29 -16 -29 -14 0 13 49 91 56 90 5 -1 26 7 48 18 31 16 40 17
47 6 8 -13 -10 -24 -95 -57 -16 -7 -26 -14 -23 -18 4 -3 39 10 79 29 162 77
265 223 275 391 13 205 -99 387 -285 463 -31 13 -66 23 -77 23 -11 0 3 -8 30
-18 125 -45 181 -86 245 -182 42 -61 48 -79 28 -79 -18 0 -33 13 -33 27 0 13
-55 84 -97 124 -46 44 -159 94 -225 98 -22 2 -14 29 10 34 12 2 -14 4 -58 4
-44 0 -91 -2 -105 -4z m70 -18 c0 -8 -7 -16 -15 -16 -17 -2 -34 -5 -37 -9 -2
-1 -12 -3 -23 -4 -32 -5 -105 -37 -105 -47 0 -5 -6 -9 -14 -9 -8 0 -21 -9 -29
-20 -8 -11 -16 -18 -19 -15 -3 3 -16 -9 -29 -26 -13 -18 -34 -43 -47 -58 -12
-14 -20 -32 -17 -38 2 -7 0 -13 -5 -13 -6 0 -10 -4 -10 -10 0 -22 19 -8 29 21
14 41 108 132 167 162 54 27 126 49 162 49 23 1 29 12 12 23 -18 11 -11 20 15
20 26 0 33 -9 15 -20 -17 -11 -11 -22 13 -23 53 0 160 -38 206 -73 13 -10 27
-16 32 -13 5 3 8 1 7 -4 -2 -5 11 -25 29 -44 17 -20 39 -51 48 -69 10 -19 23
-37 29 -41 6 -4 8 -8 4 -8 -3 0 0 -21 8 -47 19 -64 17 -150 -5 -223 -19 -61
-88 -179 -105 -180 -6 0 -20 -10 -33 -21 -19 -19 -25 -20 -40 -8 -17 13 -17
12 0 -8 13 -14 14 -21 5 -20 -7 1 -30 -7 -50 -18 -21 -10 -40 -16 -44 -13 -9
10 27 58 39 51 6 -4 1 7 -11 24 -12 17 -22 38 -22 46 0 8 -7 20 -15 27 -18 15
-20 -1 -2 -19 10 -11 9 -13 -3 -9 -8 3 -23 1 -33 -4 -13 -7 -19 -3 -27 16 -6
17 -14 24 -25 20 -8 -4 -15 -1 -15 6 0 8 12 10 35 7 19 -3 35 -1 35 5 0 5 5 6
10 3 6 -3 10 0 10 7 1 18 35 -28 56 -74 9 -21 21 -38 26 -38 14 0 9 14 -27 69
l-34 54 24 19 25 19 47 -45 c26 -25 51 -46 55 -46 10 0 11 20 1 20 -14 1 -109
89 -96 90 6 0 18 -6 25 -13 23 -22 85 -67 93 -67 14 0 -15 27 -60 56 -25 15
-45 32 -45 36 0 9 24 -2 82 -39 41 -25 48 -27 48 -15 0 5 -27 21 -60 37 -32
15 -57 32 -54 37 3 4 32 -6 64 -22 65 -33 70 -34 70 -21 0 5 -26 19 -57 31
-59 24 -86 40 -66 40 6 0 32 -9 58 -20 51 -22 75 -25 75 -10 0 6 -5 10 -11 10
-24 0 -119 32 -119 40 0 5 30 0 67 -11 37 -10 69 -16 72 -13 10 10 -22 22 -75
29 -51 6 -86 25 -47 25 15 0 16 2 3 10 -10 7 7 10 58 10 40 0 71 4 68 9 -3 4
-38 6 -78 3 -67 -5 -72 -4 -59 11 11 14 11 17 0 18 -8 0 -5 4 6 9 19 8 19 9 1
9 -31 1 -9 15 52 32 31 8 58 21 60 27 2 8 -22 3 -64 -13 -53 -20 -69 -23 -76
-13 -13 21 -10 23 42 48 52 24 83 50 61 50 -7 0 -35 -16 -63 -35 -37 -25 -54
-31 -60 -23 -4 7 -10 10 -13 6 -4 -3 3 -25 15 -48 15 -30 21 -56 19 -93 -4
-67 -19 -97 -75 -146 -97 -85 -227 -64 -302 49 -28 41 -30 52 -28 118 1 47 -2
71 -9 69 -5 -2 -38 7 -72 19 -35 13 -63 19 -63 14 0 -12 1 -12 85 -36 53 -15
57 -18 35 -25 -14 -4 -19 -7 -12 -8 6 -1 12 -10 12 -22 0 -19 -5 -21 -64 -18
-36 2 -68 0 -72 -4 -4 -4 28 -8 72 -8 58 -1 71 -3 49 -9 -16 -4 -51 -8 -77 -9
-28 -1 -48 -6 -48 -12 0 -7 12 -9 33 -6 98 17 117 18 117 9 0 -6 -26 -13 -58
-17 -58 -6 -91 -19 -81 -29 3 -4 28 1 55 9 56 17 98 20 75 6 -11 -7 -10 -10 5
-13 12 -2 -4 -13 -48 -32 -38 -16 -68 -33 -68 -37 0 -10 32 1 89 31 45 22 55
25 46 10 -3 -5 -1 -10 6 -10 18 0 -5 -23 -56 -56 -25 -15 -45 -32 -45 -36 0
-15 14 -8 61 32 26 22 52 40 57 40 25 0 15 -29 -25 -75 -23 -27 -43 -54 -43
-60 0 -5 23 15 50 45 56 62 69 56 15 -7 -33 -39 -44 -63 -27 -63 4 0 22 25 41
55 18 30 38 55 43 55 9 0 -12 -39 -49 -95 -15 -22 -17 -35 -5 -35 5 0 21 27
37 60 16 33 32 60 37 60 13 0 10 -12 -12 -47 -11 -18 -17 -33 -14 -33 4 0 1
-7 -6 -15 -7 -8 -9 -15 -4 -15 5 0 3 -4 -4 -9 -10 -6 -8 -13 8 -32 l21 -24 -5
38 c-4 35 -3 37 11 25 14 -11 15 -10 9 9 -4 12 -2 24 4 28 5 3 10 2 10 -3 0
-5 9 -12 20 -15 11 -3 24 -17 30 -31 5 -14 15 -26 21 -26 7 0 10 -2 7 -5 -11
-11 -38 8 -38 26 0 11 -7 22 -15 26 -18 6 -25 1 -30 -19 -1 -7 -8 -27 -15 -44
l-13 -31 -55 29 c-31 15 -65 37 -77 48 -12 11 -25 20 -31 20 -17 1 -87 125
-107 189 -14 48 -17 82 -14 140 3 42 6 77 6 79 1 1 1 5 0 8 0 4 5 11 13 16 10
7 8 13 -10 28 -21 18 -22 21 -8 47 52 100 146 181 253 218 80 28 113 31 113
10z m454 -289 c-3 -8 0 -17 6 -21 8 -5 7 -11 -2 -23 -11 -13 -10 -15 4 -9 23
8 33 -42 25 -132 -6 -76 -43 -185 -59 -175 -7 4 -8 2 -4 -4 6 -10 -76 -132
-88 -132 -2 0 -11 10 -22 22 -10 12 -14 19 -8 15 28 -16 126 132 142 215 11
58 5 218 -9 218 -4 0 -5 9 -2 20 3 11 9 20 14 20 5 0 6 -6 3 -14z m-829 -23
c-29 -67 1 -313 37 -313 5 0 7 -3 6 -7 -3 -16 17 -49 49 -83 33 -35 39 -50 26
-63 -10 -10 -43 24 -36 37 3 6 3 8 -2 4 -21 -19 -98 121 -115 209 -15 73 -8
182 11 194 8 5 10 9 5 9 -5 0 -3 7 4 15 17 20 24 19 15 -2z m326 -365 c-5 -14
-16 -28 -25 -31 -11 -5 -10 2 6 29 23 39 34 40 19 2z m73 11 c-3 -5 -14 -9
-25 -9 -10 0 -19 -6 -19 -14 0 -21 19 -30 26 -12 3 8 14 14 25 13 21 -1 23 -6
9 -27 -8 -13 -10 -13 -10 0 0 10 -3 11 -11 3 -8 -8 -5 -17 11 -33 24 -24 21
-36 -7 -26 -12 5 -14 9 -5 14 7 5 -2 16 -27 33 -30 19 -37 29 -31 44 5 14 18
21 39 21 17 1 28 -2 25 -7z m80 -74 c3 -8 1 -15 -4 -15 -6 0 -10 7 -10 15 0 8
2 15 4 15 2 0 6 -7 10 -15z m-314 -46 c0 -8 40 -24 53 -21 4 1 7 -3 7 -9 0 -6
6 -9 14 -6 8 3 17 -1 20 -9 3 -8 12 -14 21 -14 8 0 15 -7 15 -16 0 -9 5 -12
12 -8 6 4 8 3 4 -4 -5 -8 -17 -7 -44 2 -73 27 -91 38 -85 55 4 9 3 13 -2 9 -4
-4 -14 0 -22 8 -8 8 -19 12 -24 9 -5 -4 -9 -2 -9 4 0 5 9 9 20 8 11 -1 20 -4
20 -8z m275 1 c-3 -5 -12 -10 -18 -10 -7 0 -6 4 3 10 19 12 23 12 15 0z m255
-1 c0 -5 -5 -7 -10 -4 -6 3 -13 -1 -16 -9 -8 -22 -23 -20 -21 2 1 19 47 30 47
11z m-311 -63 c9 -11 9 -16 0 -21 -10 -7 -28 10 -29 28 0 12 17 8 29 -7z m38
-26 c-1 -21 -21 -27 -32 -11 -4 8 18 28 32 31 1 0 1 -9 0 -20z m-88 -210 c6 0
11 -4 11 -10 0 -5 -3 -10 -7 -10 -11 0 -43 33 -43 44 0 6 7 3 14 -6 7 -10 18
-18 25 -18z"/>
<path d="M831 1268 c0 -13 4 -44 8 -70 4 -27 5 -48 0 -48 -4 0 -12 28 -18 61
-6 34 -13 64 -16 67 -13 13 -13 -9 1 -62 23 -87 10 -92 -16 -6 -13 41 -25 68
-27 59 -2 -9 5 -41 17 -70 22 -59 24 -73 11 -65 -4 3 -18 33 -30 66 -12 33
-26 60 -32 60 -13 0 -12 -5 21 -70 32 -64 36 -75 20 -65 -5 3 -10 1 -10 -4 0
-23 -16 -8 -50 44 -19 30 -41 55 -48 55 -7 0 6 -23 28 -51 22 -28 44 -58 48
-66 8 -13 14 -12 48 6 68 36 174 23 230 -30 19 -17 22 -18 34 -4 7 8 17 15 22
15 6 0 5 -7 -2 -15 -22 -26 3 -16 58 24 30 21 50 41 45 44 -5 4 -26 -8 -47
-25 -50 -41 -59 -27 -10 17 21 19 33 34 25 35 -8 0 -34 -21 -58 -46 -24 -26
-47 -44 -50 -40 -4 3 15 29 42 56 27 27 46 52 43 56 -6 5 -53 -42 -85 -85 -6
-9 -14 -14 -17 -11 -2 3 13 29 35 57 41 54 45 63 30 63 -5 0 -24 -25 -41 -55
-17 -30 -36 -55 -41 -55 -10 0 7 36 40 85 12 17 21 37 21 44 0 22 -14 4 -45
-57 -24 -47 -45 -73 -45 -57 0 3 14 32 30 65 33 65 34 70 21 70 -5 0 -19 -26
-31 -57 -23 -57 -40 -86 -40 -67 0 5 9 33 20 62 23 59 24 72 10 72 -5 0 -10
-6 -10 -13 0 -24 -33 -122 -37 -110 -2 6 3 37 11 69 9 33 12 62 7 67 -5 5 -14
-23 -22 -62 -10 -58 -16 -71 -31 -71 -16 0 -18 9 -18 72 0 39 -3 68 -7 65 -3
-4 -5 -37 -4 -73 2 -45 -1 -64 -8 -59 -6 3 -11 33 -11 65 0 32 -4 62 -10 65
-6 3 -10 -4 -9 -17z"/>
<path d="M901 1223 c1 -67 2 -67 10 -23 11 63 11 90 -1 90 -6 0 -9 -28 -9 -67z"/>
<path d="M709 1195 c20 -29 38 -51 40 -49 8 8 -44 93 -60 97 -11 3 -5 -11 20
-48z"/>
<path d="M630 1192 c0 -4 20 -28 45 -52 42 -41 60 -70 33 -54 -8 5 -9 2 -5 -9
9 -25 0 -21 -52 21 -60 50 -71 56 -71 40 0 -8 25 -29 55 -47 30 -18 55 -38 55
-43 0 -21 -33 -18 -90 8 -33 15 -63 25 -66 22 -6 -7 69 -42 118 -56 35 -10 37
-8 62 26 l25 35 -50 59 c-51 58 -59 65 -59 50z"/>
<path d="M616 1149 c21 -23 74 -63 74 -56 0 3 -16 21 -35 41 -37 38 -72 51
-39 15z"/>
<path d="M860 1113 c-52 -7 -69 -14 -100 -39 -140 -118 -53 -347 126 -332 188
16 241 262 75 348 -35 18 -72 26 -101 23z m66 -23 c25 -8 115 -80 100 -80 -3
0 1 -11 8 -25 28 -54 -3 -155 -61 -195 -69 -47 -145 -46 -201 4 -67 59 -85
155 -42 217 29 41 60 68 78 69 7 0 11 3 9 8 -8 11 74 13 109 2z"/>
<path d="M828 1068 c-9 -7 -18 -22 -20 -33 -3 -15 -10 -19 -30 -17 -32 4 -58
-29 -58 -72 l0 -30 30 29 c37 36 49 27 22 -17 -18 -29 -19 -37 -8 -58 7 -14
18 -24 25 -22 9 2 9 -3 1 -19 -13 -23 -13 -22 17 -38 27 -14 56 -15 48 -1 -4
6 5 10 22 9 17 -1 21 -3 11 -6 -35 -9 -17 -20 20 -13 50 9 65 18 57 37 -3 9 1
23 8 32 25 28 26 48 6 81 -22 35 -19 50 6 30 9 -7 18 -10 21 -7 3 3 -11 15
-33 27 -36 20 -36 21 -8 15 40 -9 57 -24 50 -46 -3 -9 -1 -20 5 -24 16 -10 12
48 -6 73 -11 16 -24 22 -42 20 -21 -2 -27 2 -32 22 -4 14 -12 24 -18 23 -7 -2
-12 2 -12 7 0 6 -4 10 -10 10 -5 0 -10 -11 -10 -25 0 -18 5 -25 20 -25 22 0
27 -15 8 -22 -20 -8 -38 2 -38 20 0 13 -3 12 -15 -4 -13 -17 -14 -16 -8 19 6
39 -2 46 -29 25z m15 -38 c-7 -25 -23 -37 -23 -16 0 8 5 18 10 21 6 4 7 11 4
17 -4 6 -2 8 4 5 5 -4 8 -16 5 -27z m-88 -30 c-4 -7 2 -9 18 -5 15 4 28 2 32
-6 5 -7 4 -10 -2 -6 -5 3 -24 -3 -41 -13 -29 -18 -44 -15 -24 4 4 4 8 12 8 17
2 16 4 19 10 19 3 0 2 -5 -1 -10z m144 -14 c20 4 31 3 31 -5 0 -7 -20 -11 -50
-11 -46 0 -60 7 -43 23 3 4 12 2 18 -3 7 -6 26 -7 44 -4z m-27 -40 c5 -7 8 -6
8 3 0 8 7 11 20 8 11 -3 23 -1 26 4 7 12 24 11 24 -1 0 -16 -60 -39 -89 -33
-32 5 -61 21 -61 33 0 12 63 0 72 -14z m-75 -46 c-2 -29 -17 -24 -17 6 0 14 4
23 9 19 6 -3 9 -14 8 -25z m170 24 c-3 -3 -2 -17 3 -30 6 -15 5 -26 -2 -30 -7
-4 -8 -3 -4 4 4 7 3 12 -1 12 -5 0 -10 11 -11 25 -1 14 3 25 10 25 6 0 9 -3 5
-6z m-117 -29 c23 -19 59 -25 53 -10 -2 8 5 18 16 25 17 8 21 8 21 -4 0 -8 3
-22 7 -32 5 -13 3 -16 -10 -11 -9 3 -17 2 -17 -4 0 -6 -8 -5 -21 2 -12 6 -19
7 -15 1 3 -5 -1 -12 -9 -16 -8 -3 -17 -1 -20 5 -4 5 -11 7 -16 4 -5 -4 -9 -2
-9 4 0 6 -8 7 -17 4 -13 -5 -15 -2 -10 11 4 10 7 24 7 32 0 15 11 12 40 -11z
m88 -61 c-20 -20 -90 -27 -112 -11 -13 10 -4 12 44 10 33 -1 60 3 60 8 0 5 5
9 12 9 8 0 6 -6 -4 -16z m-113 -34 c3 -6 -1 -7 -9 -4 -18 7 -21 14 -7 14 6 0
13 -4 16 -10z m115 0 c0 -5 -4 -10 -10 -10 -5 0 -10 5 -10 10 0 6 5 10 10 10
6 0 10 -4 10 -10z"/>
<path d="M550 1105 c0 -6 116 -65 127 -65 4 0 -16 16 -46 35 -47 31 -81 44
-81 30z"/>
<path d="M1137 1052 c-64 -33 -53 -39 16 -8 30 13 59 21 63 18 4 -4 4 -1 0 6
-10 16 -22 14 -79 -16z"/>
<path d="M520 1002 c0 -10 48 -22 84 -21 20 0 20 0 1 8 -38 16 -85 23 -85 13z"/>
<path d="M1160 994 c-25 -9 -29 -13 -14 -13 35 -1 84 11 84 20 0 12 -28 9 -70
-7z"/>
<path d="M1175 964 l-60 -11 57 -2 c31 0 65 -4 75 -7 11 -4 14 -3 7 3 -6 4
-13 13 -15 18 -3 8 -23 7 -64 -1z"/>
<path d="M515 960 c3 -5 34 -9 68 -9 59 1 60 2 22 10 -56 11 -97 11 -90 -1z"/>
<path d="M1160 890 c37 -12 82 -12 75 0 -3 6 -27 10 -53 9 -38 -1 -42 -2 -22
-9z"/>
<path d="M560 832 c-27 -10 -38 -17 -28 -20 9 -2 36 6 60 17 52 23 31 26 -32
3z"/>
<path d="M615 785 c-22 -14 -44 -27 -50 -29 -5 -2 -7 -6 -4 -10 6 -6 109 52
109 60 0 9 -18 2 -55 -21z"/>
<path d="M650 734 c-45 -35 -60 -54 -43 -54 5 0 29 20 53 45 53 54 50 57 -10
9z"/>
<path d="M1058 714 c35 -46 62 -71 62 -57 0 5 -21 29 -47 53 l-47 45 32 -41z"/>
<path d="M1042 680 c31 -47 48 -61 48 -41 0 4 -13 24 -30 42 -16 19 -30 37
-30 42 0 4 -5 7 -10 7 -6 0 5 -22 22 -50z"/>
<path d="M1196 1371 c-4 -5 -2 -12 3 -15 5 -4 6 -18 2 -34 -7 -23 -2 -34 35
-76 24 -27 56 -76 71 -108 15 -32 31 -58 34 -58 12 0 32 31 24 38 -4 4 -10 1
-12 -5 -3 -7 -10 -13 -16 -13 -5 0 -7 3 -4 7 4 3 3 11 -2 17 -7 8 0 18 20 31
31 22 37 35 15 35 -8 0 -13 8 -12 18 0 9 -5 16 -12 14 -8 -1 -11 2 -7 7 9 16
-17 50 -34 44 -12 -4 -13 -3 -3 4 10 8 10 12 -3 23 -15 12 -21 4 -16 -23 1 -5
-4 -5 -10 -1 -7 4 -10 1 -7 -7 3 -8 15 -19 27 -25 12 -6 21 -15 19 -18 -2 -4
5 -12 15 -17 18 -11 24 -59 7 -59 -5 0 -9 3 -8 8 3 14 -14 42 -23 36 -5 -3 -6
2 -3 11 5 11 2 14 -10 9 -11 -4 -16 -1 -16 11 0 20 -25 47 -34 37 -4 -3 -4 2
0 13 6 14 4 17 -7 13 -11 -4 -15 1 -15 22 0 19 4 26 13 23 7 -3 14 -9 14 -14
1 -5 2 -13 3 -18 3 -21 15 -21 26 -2 10 20 7 25 -13 22 -5 -1 -6 3 -3 7 3 5
-2 16 -12 24 -27 24 -40 29 -46 19z"/>
<path d="M1325 1356 c-16 -13 -26 -28 -22 -32 4 -5 12 -2 17 6 5 8 12 11 16 7
4 -3 1 -13 -6 -22 -16 -19 4 -47 27 -38 12 5 14 1 8 -15 -10 -32 10 -27 35 9
27 37 21 45 -21 30 -41 -14 -51 -5 -21 20 17 13 22 24 17 39 -8 26 -13 25 -50
-4z m45 -6 c0 -5 -7 -10 -15 -10 -8 0 -15 5 -15 10 0 6 7 10 15 10 8 0 15 -4
15 -10z m30 -64 c0 -11 -19 -15 -25 -6 -3 5 1 10 9 10 9 0 16 -2 16 -4z"/>
<path d="M390 1325 c35 -36 57 -41 25 -5 -10 11 -14 20 -9 20 15 0 -20 20 -35
20 -9 0 -2 -14 19 -35z"/>
<path d="M330 1315 c-7 -8 -10 -20 -7 -27 6 -17 67 -52 67 -40 0 6 -8 13 -17
16 -12 5 -13 10 -5 18 8 8 15 8 27 -2 9 -7 15 -8 15 -2 0 6 -9 14 -20 17 -11
3 -20 10 -20 15 0 15 -29 19 -40 5z m30 -20 c0 -8 -4 -15 -9 -15 -13 0 -22 16
-14 24 11 11 23 6 23 -9z"/>
<path d="M292 1253 c-11 -21 -9 -24 27 -43 40 -20 40 -20 51 0 7 14 7 20 0 20
-5 0 -10 -5 -10 -11 0 -6 -6 -9 -12 -6 -7 2 -11 12 -10 22 3 16 1 17 -11 6
-13 -10 -16 -8 -19 11 l-3 23 -13 -22z"/>
<path d="M1412 1248 c-52 -32 -37 -71 19 -48 28 12 36 33 21 57 -5 9 -16 7
-40 -9z m19 -28 c-12 -11 -27 -17 -33 -14 -14 9 12 34 36 34 21 -1 21 -1 -3
-20z"/>
<path d="M295 1184 c29 -25 29 -25 5 -18 -14 4 -31 9 -37 11 -7 3 -13 1 -13
-5 0 -12 78 -27 88 -17 8 8 -47 55 -63 55 -5 -1 4 -12 20 -26z"/>
<path d="M1432 1182 c-30 -17 -31 -19 -17 -37 15 -19 15 -19 13 -1 -2 10 3 21
10 23 6 3 12 0 12 -6 0 -6 4 -11 10 -11 5 0 7 7 4 15 -4 8 -1 15 5 15 6 0 11
-4 11 -10 0 -5 5 -10 10 -10 7 0 7 6 0 20 -13 24 -16 24 -58 2z"/>
<path d="M241 1126 c-17 -20 12 -46 50 -46 22 0 29 5 29 20 0 34 -57 53 -79
26z m64 -17 c4 -6 5 -12 4 -14 -7 -7 -59 8 -59 16 0 13 47 11 55 -2z"/>
<path d="M1469 1116 c-15 -31 -33 -35 -24 -5 5 15 4 19 -4 15 -6 -4 -11 -16
-11 -27 0 -26 40 -26 47 1 3 11 9 20 14 20 5 0 6 -7 3 -15 -4 -8 -1 -15 6 -15
15 0 9 42 -7 48 -7 2 -18 -8 -24 -22z"/>
<path d="M227 1063 c-16 -15 -6 -43 17 -49 39 -9 61 -1 62 24 1 17 -4 22 -22
22 -13 0 -24 -4 -24 -10 0 -5 7 -7 15 -4 10 4 15 0 15 -11 0 -12 -5 -15 -22
-10 -28 9 -47 25 -30 25 7 0 12 5 12 10 0 11 -13 13 -23 3z"/>
<path d="M1463 1063 c-13 -2 -23 -8 -23 -13 0 -11 53 -5 77 9 16 9 15 10 -7 9
-14 0 -35 -3 -47 -5z"/>
<path d="M1470 1023 l-25 -13 27 0 c30 0 58 9 58 19 0 11 -33 8 -60 -6z"/>
<path d="M323 998 c2 -21 0 -38 -4 -38 -5 0 -9 -16 -9 -36 0 -25 4 -33 13 -28
9 5 9 4 1 -5 -20 -22 27 -208 49 -194 6 4 8 0 4 -9 -6 -18 20 -61 33 -53 4 3
7 -1 6 -8 0 -6 4 -13 9 -14 6 -1 9 4 7 11 -3 18 29 16 51 -2 17 -15 25 -48 9
-38 -4 2 -9 -4 -10 -15 -4 -44 -6 -49 -19 -49 -7 0 -13 5 -13 10 0 6 -4 10
-10 10 -16 0 -12 -20 6 -27 25 -9 63 16 58 40 -2 11 1 26 7 34 8 9 4 21 -16
45 -16 18 -40 59 -55 90 -15 32 -29 56 -31 54 -2 -2 -5 17 -7 42 -1 26 -4 56
-6 67 -3 11 -5 23 -5 28 -1 4 -8 7 -17 7 -8 0 -12 -4 -9 -10 3 -5 0 -10 -7
-10 -7 0 -2 -7 10 -16 26 -18 20 -39 -7 -24 -15 7 -18 23 -19 81 0 39 -6 77
-12 83 -8 8 -10 1 -7 -26z m29 -200 c-11 -21 -11 -21 -5 6 4 22 3 27 -7 21 -9
-6 -11 -4 -5 4 14 24 30 -5 17 -31z m37 7 c5 2 6 -6 4 -19 -3 -13 -13 -26 -22
-29 -15 -4 -16 1 -6 41 7 31 11 38 13 24 2 -12 7 -20 11 -17z m27 -63 c-3 -3
-1 -11 6 -19 9 -11 8 -13 -2 -11 -7 2 -15 -3 -18 -11 -3 -8 0 -11 7 -7 6 4 11
3 11 -3 0 -6 6 -9 13 -7 6 1 9 1 5 -1 -15 -8 -8 -25 7 -19 8 3 15 1 15 -4 0
-6 -9 -10 -19 -10 -12 0 -29 15 -44 40 -13 22 -27 37 -31 33 -4 -4 -5 -1 -1 7
3 8 17 16 31 16 14 1 23 -1 20 -4z"/>
<path d="M1479 947 c5 -12 15 -22 22 -22 22 0 16 27 -8 36 -20 7 -21 6 -14
-14z"/>
<path d="M230 940 c0 -15 5 -20 18 -18 9 2 17 10 17 18 0 8 -8 16 -17 18 -13
2 -18 -3 -18 -18z"/>
<path d="M1360 910 c0 -5 7 -10 15 -10 8 0 15 5 15 10 0 6 -7 10 -15 10 -8 0
-15 -4 -15 -10z"/>
<path d="M1510 901 c0 -6 4 -13 10 -16 6 -3 7 1 4 9 -7 18 -14 21 -14 7z"/>
<path d="M250 849 c0 -5 5 -7 10 -4 6 3 10 8 10 11 0 2 -4 4 -10 4 -5 0 -10
-5 -10 -11z"/>
<path d="M253 773 c-7 -2 -13 -13 -13 -23 0 -36 12 -50 41 -50 22 0 29 5 29
20 0 11 -4 20 -10 20 -5 0 -7 -8 -3 -17 5 -15 3 -14 -10 2 -12 14 -16 16 -17
6 0 -11 -3 -12 -11 -4 -8 8 -8 16 1 30 8 13 10 14 7 2 -4 -13 -1 -15 14 -12
10 3 19 12 19 19 0 14 -23 17 -47 7z"/>
<path d="M1441 763 c0 -6 -3 -17 -6 -25 -3 -8 3 -13 17 -14 13 0 31 -4 41 -8
10 -5 17 -4 17 2 0 6 -13 13 -29 17 -17 3 -32 14 -34 23 -3 9 -5 12 -6 5z"/>
<path d="M291 671 c-13 -24 9 -57 33 -48 23 9 31 34 16 52 -17 20 -37 19 -49
-4z m42 -8 c9 -9 -13 -34 -24 -27 -14 8 -11 34 4 34 8 0 17 -3 20 -7z"/>
<path d="M515 580 c-6 -10 1 -14 18 -11 4 0 7 -9 6 -21 0 -13 -3 -17 -6 -10
-2 6 -9 12 -14 12 -6 0 -8 -4 -4 -9 3 -6 -2 -14 -10 -18 -13 -7 -10 -13 16
-32 29 -21 30 -25 14 -33 -12 -8 -20 -7 -26 3 -4 7 -11 10 -15 6 -4 -4 1 -14
12 -22 18 -15 18 -15 -7 -10 -17 4 -30 1 -39 -10 -12 -15 -11 -19 10 -36 36
-28 54 -20 58 24 4 41 8 45 29 20 13 -16 13 -16 4 4 -8 16 -7 22 5 27 23 9 31
7 15 -3 -11 -7 -7 -13 18 -25 17 -9 37 -14 43 -10 7 4 8 3 4 -4 -4 -7 13 -17
49 -27 54 -16 101 -13 90 6 -4 5 -1 9 4 9 6 0 11 8 10 18 0 10 -3 12 -6 5 -2
-7 -11 -13 -19 -13 -8 0 -14 -4 -14 -9 0 -5 -7 -12 -16 -15 -13 -5 -14 -4 -6
7 16 19 -38 50 -73 41 -15 -4 -25 -2 -25 5 0 6 -9 11 -19 11 -10 0 -22 7 -25
16 -9 23 -7 34 5 34 5 0 8 -4 5 -9 -6 -9 22 -26 37 -22 5 1 6 -3 2 -9 -3 -5
-1 -10 4 -10 6 0 11 4 11 9 0 5 9 7 20 4 11 -3 20 -10 20 -15 0 -6 7 -8 15 -4
8 3 15 1 15 -5 0 -6 6 -9 14 -6 7 3 19 0 26 -6 10 -9 12 -9 8 1 -3 13 -96 52
-130 55 -9 1 -14 5 -12 9 3 4 2 8 -3 8 -4 0 -31 18 -60 40 -29 21 -55 35 -58
30z m67 -75 c-4 -22 -6 -23 -26 -9 -13 8 -25 12 -28 8 -3 -3 -9 0 -14 7 -4 7
-3 10 4 5 6 -3 17 0 24 7 20 22 46 10 40 -18z m138 -86 c0 -17 -17 -17 -27 1
-10 15 -9 17 8 13 10 -3 19 -9 19 -14z m-226 5 c9 -3 16 -15 16 -25 0 -17 -3
-18 -20 -7 -11 7 -20 18 -20 25 0 15 2 15 24 7z"/>
<path d="M335 520 c3 -5 14 -10 23 -10 15 0 15 2 2 10 -20 13 -33 13 -25 0z"/>
<path d="M1263 481 l-52 -48 23 -26 c32 -37 42 -34 16 3 -15 21 -17 30 -8 30
7 0 19 -9 26 -20 7 -11 17 -20 24 -20 6 0 1 11 -12 25 -30 32 -19 44 16 16 25
-20 51 -20 39 0 -4 5 1 12 10 15 14 6 13 9 -6 30 -11 12 -18 27 -14 33 15 25
-13 8 -62 -38z m55 -14 c2 -16 -2 -27 -8 -27 -7 0 -10 7 -7 14 4 11 1 13 -11
9 -14 -6 -15 -4 -5 9 7 8 9 18 5 23 -4 4 0 6 8 3 8 -2 16 -17 18 -31z"/>
<path d="M1355 511 c-3 -5 -2 -12 3 -15 5 -3 9 1 9 9 0 17 -3 19 -12 6z"/>
<path d="M400 497 c0 -8 9 -22 21 -33 15 -14 24 -16 37 -7 20 12 22 35 5 40
-7 3 -9 -3 -6 -16 4 -15 1 -21 -11 -21 -10 0 -15 7 -13 22 1 14 -4 23 -15 26
-11 2 -18 -2 -18 -11z m25 -7 c3 -5 1 -10 -4 -10 -6 0 -11 5 -11 10 0 6 2 10
4 10 3 0 8 -4 11 -10z"/>
<path d="M883 395 c0 -39 3 -45 21 -45 12 0 16 4 11 8 -6 4 -12 21 -13 37 -6
49 -19 49 -19 0z"/>
<path d="M586 405 c-3 -8 -3 -22 1 -31 5 -14 3 -15 -17 -4 -16 9 -25 9 -33 1
-8 -8 -8 -11 1 -11 7 0 12 -6 12 -14 0 -16 22 -27 37 -18 17 12 22 39 10 52
-10 10 -8 12 7 6 16 -5 17 -4 6 9 -11 13 -10 14 5 9 13 -5 16 -4 11 4 -10 17
-33 15 -40 -3z m-2 -66 c-3 -5 -10 -7 -15 -3 -5 3 -7 10 -3 15 3 5 10 7 15 3
5 -3 7 -10 3 -15z"/>
<path d="M1177 413 c-14 -13 -6 -25 8 -13 12 10 15 10 15 -4 0 -9 7 -16 16
-16 8 0 12 -5 8 -11 -3 -6 -15 -9 -25 -6 -11 3 -19 1 -19 -4 0 -12 47 -12 55
1 7 12 -25 59 -41 60 -6 0 -14 -3 -17 -7z"/>
<path d="M1140 355 c0 -8 4 -15 10 -15 5 0 7 7 4 15 -4 8 -8 15 -10 15 -2 0
-4 -7 -4 -15z"/>
<path d="M1035 349 c-4 -6 -5 -12 -2 -15 2 -3 7 2 10 11 7 17 1 20 -8 4z"/>
<path d="M904 328 c-4 -7 -3 -8 4 -4 8 5 12 0 12 -13 0 -11 5 -23 10 -26 11
-7 12 0 4 33 -7 24 -19 28 -30 10z"/>
<path d="M658 323 c7 -3 16 -2 19 1 4 3 -2 6 -13 5 -11 0 -14 -3 -6 -6z"/>
<path d="M860 305 c0 -10 7 -15 18 -13 21 4 19 22 -2 26 -10 2 -16 -3 -16 -13z"/>
<path d="M1105 310 c-3 -6 1 -7 9 -4 18 7 21 14 7 14 -6 0 -13 -4 -16 -10z"/>
<path d="M500 250 c0 -5 5 -10 10 -10 6 0 10 -4 10 -10 0 -5 -7 -10 -15 -10
-8 0 -15 -6 -15 -12 0 -24 12 -58 20 -58 5 0 6 9 3 19 -4 16 -1 19 15 14 13
-3 18 -11 15 -19 -9 -25 13 -15 25 11 6 14 17 25 24 25 21 -1 61 -27 51 -33
-5 -3 -15 -2 -23 4 -28 17 -40 10 -39 -23 0 -30 1 -31 9 -11 10 24 40 22 40
-3 0 -8 9 -14 21 -14 15 0 19 -5 15 -15 -3 -8 -1 -15 4 -15 4 0 14 16 20 35 6
19 18 35 26 35 12 0 12 -4 4 -20 -14 -26 -6 -40 20 -33 14 4 20 0 20 -11 0
-10 5 -14 10 -11 6 3 10 17 10 31 0 30 23 41 53 25 l22 -11 -22 5 c-16 4 -25
0 -33 -15 -10 -19 -8 -23 19 -33 17 -6 31 -15 31 -19 0 -4 5 -8 10 -8 7 0 8
13 5 34 -4 20 -2 36 4 40 23 14 10 26 -28 26 -22 0 -44 6 -51 15 -7 8 -20 14
-29 14 -13 -1 -13 -2 2 -6 9 -2 17 -8 17 -13 0 -11 -175 42 -227 68 -48 25
-53 26 -53 12z m60 -45 c0 -8 -6 -15 -14 -15 -17 0 -28 14 -19 24 12 12 33 6
33 -9z m130 -39 c0 -3 -7 -12 -16 -20 -19 -20 -39 -11 -21 9 11 13 37 21 37
11z m73 -12 c8 -8 -3 -34 -14 -34 -5 0 -9 9 -9 20 0 19 11 26 23 14z m77 -44
c0 -5 -7 -10 -15 -10 -8 0 -15 5 -15 10 0 6 7 10 15 10 8 0 15 -4 15 -10z"/>
<path d="M1156 227 c5 -14 -79 -42 -162 -54 -25 -3 -47 -10 -51 -16 -4 -6 13
-8 48 -3 46 5 51 4 33 -6 -12 -7 -19 -19 -17 -25 6 -17 -2 -16 -21 3 -14 14
-16 14 -16 0 0 -15 29 -36 51 -36 6 0 9 8 6 20 -7 26 10 26 18 0 11 -33 24
-22 15 11 -10 33 -6 49 11 49 6 0 8 -9 4 -19 -7 -23 4 -31 46 -36 28 -4 30 -2
25 19 -3 13 -8 31 -11 38 -6 15 42 44 54 33 5 -6 -12 -20 -34 -28 -5 -2 -1
-14 9 -26 11 -11 22 -19 25 -16 3 4 -1 10 -8 14 -7 5 -10 14 -7 20 11 17 24
13 31 -9 4 -11 11 -18 16 -15 5 4 3 17 -4 33 -8 15 -12 34 -10 42 3 11 -5 16
-26 18 -22 2 -29 -1 -25 -11z m-38 -69 c-4 -31 -25 -34 -25 -3 0 15 5 25 14
25 9 0 13 -8 11 -22z"/>
</g>
</svg>
